<?xml version="1.0" standalone="no"?>
<!DOCTYPE svg PUBLIC "-//W3C//DTD SVG 20010904//EN"
 "http://www.w3.org/TR/2001/REC-SVG-20010904/DTD/svg10.dtd">
<svg version="1.0" xmlns="http://www.w3.org/2000/svg"
 width="3840.000000pt" height="2160.000000pt" viewBox="0 0 3840.000000 2160.000000"
 preserveAspectRatio="xMidYMid meet">
<metadata>
Created by potrace 1.15, written by Peter Selinger 2001-2017
</metadata>
<g transform="translate(0.000000,2160.000000) scale(0.100000,-0.100000)"
fill="#000000" stroke="none">
<path d="M0 10800 l0 -10800 19200 0 19200 0 0 10800 0 10800 -19200 0 -19200
0 0 -10800z m19771 3722 c85 -43 197 -98 249 -122 52 -24 147 -68 210 -98 63
-30 180 -85 260 -122 80 -37 188 -88 240 -113 153 -72 589 -277 665 -312 97
-45 402 -189 685 -322 52 -25 160 -76 240 -113 80 -37 188 -88 240 -113 52
-24 136 -63 185 -87 50 -23 114 -53 144 -67 l53 -26 -6 -111 c-7 -118 -20
-570 -36 -1266 -16 -697 -20 -858 -26 -1010 -43 -1191 -200 -2016 -490 -2580
-150 -291 -442 -623 -724 -824 -125 -88 -161 -108 -255 -141 -91 -32 -83 -36
-165 92 -41 65 -111 167 -155 227 -72 100 -223 321 -600 878 -71 106 -179 262
-239 348 -60 85 -128 182 -151 215 -39 55 -75 117 -75 129 0 2 21 17 47 32
l48 28 -29 7 c-21 6 -39 2 -76 -19 -48 -27 -49 -27 -82 -9 -119 64 -265 210
-348 346 -178 296 -247 744 -184 1206 8 61 19 126 24 145 4 19 11 47 14 62 7
32 93 106 133 114 l30 6 6 -104 c13 -193 74 -410 181 -634 57 -119 67 -132
107 -156 48 -28 495 -254 598 -303 35 -16 75 -44 90 -61 60 -68 280 -634 316
-814 31 -151 37 -167 72 -174 62 -12 273 -30 273 -24 0 3 -22 43 -48 89 -27
46 -77 138 -112 204 -34 66 -74 137 -88 157 -13 21 -22 44 -19 51 3 8 35 31
72 52 l67 37 57 -39 c31 -21 174 -121 318 -221 145 -100 265 -182 267 -182 3
0 78 81 167 180 89 99 165 180 170 180 4 0 21 19 38 41 l30 42 -34 67 c-19 37
-72 153 -118 256 -180 403 -476 1063 -511 1137 -20 43 -36 81 -36 83 0 3 -40
89 -90 192 -115 240 -124 278 -116 447 3 72 12 159 20 195 8 36 12 68 8 72 -4
4 -41 33 -84 65 -42 32 -259 209 -483 393 -224 184 -459 376 -523 425 -63 50
-124 102 -136 118 l-20 27 35 36 c18 20 62 60 97 89 34 29 80 76 102 105 52
69 114 191 136 265 22 75 22 221 0 325 -16 73 -102 263 -117 258 -4 -2 -105
-96 -226 -209 -360 -339 -568 -523 -582 -514 -5 2 -17 -5 -27 -18 l-19 -22 25
20 25 20 -18 -22 c-19 -22 -54 -23 -68 -2 -11 19 -37 202 -50 354 -14 163 -6
430 16 585 18 129 67 326 106 433 21 57 44 97 80 138 28 33 54 59 58 59 4 0
77 -35 162 -78z m-1094 -63 c6 -35 21 -127 33 -204 54 -345 137 -697 283
-1198 l12 -39 -61 -58 c-44 -42 -72 -61 -105 -69 -24 -6 -127 -47 -229 -91
-101 -43 -187 -77 -189 -74 -3 2 13 22 34 44 21 22 36 42 33 45 -3 3 -24 -15
-47 -40 -23 -25 -45 -45 -50 -45 -14 0 -241 440 -340 660 -83 183 -186 444
-287 727 l-43 122 45 61 c30 38 55 62 72 66 15 3 43 10 62 15 19 4 134 29 255
54 121 25 276 58 345 74 71 16 134 25 145 21 15 -5 23 -22 32 -71z m-1673
-335 c20 -40 134 -241 223 -394 124 -212 484 -729 634 -911 188 -227 199 -243
199 -269 0 -34 -58 -89 -177 -169 -50 -34 -136 -104 -190 -156 -54 -52 -103
-95 -110 -95 -15 0 -249 190 -393 319 -190 172 -788 777 -898 909 -57 68 -135
166 -175 219 -40 53 -96 127 -124 166 -36 47 -53 79 -53 99 0 23 24 69 65 126
2 2 76 18 166 37 90 18 290 63 444 98 154 36 291 67 305 69 42 6 64 -7 84 -48z
m-1429 -1077 c394 -342 1051 -786 1600 -1082 170 -92 177 -101 128 -164 -75
-92 -125 -164 -181 -254 -68 -111 -151 -207 -178 -207 -15 0 -13 5 12 32 16
18 33 35 37 39 4 3 -12 11 -35 18 -149 42 -570 181 -676 223 -29 11 -55 18
-59 15 -3 -3 6 -9 21 -13 30 -7 33 -16 11 -34 -11 -9 -12 -17 -5 -31 8 -15 7
-17 -5 -13 -8 4 -15 11 -15 18 0 6 -5 4 -10 -4 -8 -13 -10 -13 -10 2 0 9 -5
20 -11 24 -8 4 -9 -1 -4 -17 3 -13 3 -19 -2 -13 -4 6 -15 11 -23 11 -26 0
-516 197 -718 289 -29 13 -57 24 -62 24 -14 0 -14 8 24 576 l34 510 29 47 c15
26 32 47 38 47 6 0 33 -19 60 -43z m5146 -1379 c188 -147 263 -225 326 -336
40 -71 43 -61 -37 -116 -30 -20 -50 -25 -141 -29 -59 -2 -112 -2 -118 2 -7 5
6 20 34 41 39 29 43 36 28 42 -27 10 -27 10 -76 -27 -25 -19 -52 -35 -61 -35
-40 0 -113 136 -166 310 -17 58 -34 112 -36 121 -7 19 97 109 126 109 10 0 64
-37 121 -82z m-5161 -548 c58 -10 152 -26 210 -35 58 -9 159 -25 225 -35 66
-11 145 -22 175 -25 30 -3 62 -8 70 -10 15 -4 147 -19 270 -30 36 -4 70 -8 77
-10 6 -2 60 -7 120 -11 59 -3 111 -8 114 -10 4 -2 -9 -42 -28 -90 -19 -47 -57
-174 -84 -282 -49 -196 -50 -197 -95 -243 -51 -51 -14 -43 -410 -94 -185 -24
-524 -45 -728 -45 l-100 0 27 28 c31 33 34 42 10 42 -9 0 -29 -15 -44 -32 -15
-18 -30 -30 -33 -27 -3 3 -7 194 -8 425 l-3 419 35 47 c39 53 20 51 200 18z
m996 -1387 c-14 -97 -17 -314 -6 -476 6 -97 9 -185 6 -195 -9 -28 -128 -120
-261 -204 -184 -114 -567 -335 -595 -342 -23 -6 -22 -4 10 24 29 26 31 30 14
30 -11 0 -31 -11 -44 -25 -13 -14 -27 -25 -32 -25 -33 0 -219 601 -244 788 -6
48 -5 51 35 94 35 38 53 48 118 67 234 67 448 132 843 260 161 51 163 51 156
4z m5089 -214 c134 -122 206 -171 307 -207 43 -15 78 -29 78 -32 0 -3 -29 -20
-64 -38 -103 -52 -241 -74 -349 -54 l-38 7 53 27 c69 36 45 36 -27 1 -47 -23
-57 -25 -65 -13 -10 16 -45 115 -83 235 -14 44 -28 88 -32 97 -5 13 6 24 47
47 29 17 55 31 58 31 3 0 55 -46 115 -101z m-4996 -1283 c6 -7 16 -51 22 -97
10 -78 33 -175 159 -658 51 -196 53 -219 12 -203 -10 3 -13 1 -8 -6 3 -6 -2
-16 -13 -21 -24 -13 -71 -14 -71 -2 0 4 -48 44 -107 87 -134 98 -234 183 -390
335 l-122 118 207 208 c261 262 280 277 311 239z"/>
</g>
</svg>
